<svg width="512" height="512" viewBox="0 0 512 512" fill="none" xmlns="http://www.w3.org/2000/svg">
  <!-- App background -->
  <rect width="512" height="512" rx="88" fill="#6D28D9"/>
  <!-- Back document -->
  <rect x="168" y="182" width="218" height="258" rx="22" fill="#3B0764"/>
  <!-- Front document body -->
  <path d="M72 70 H305 L385 150 V432 Q385 455 362 455 H72 Q49 455 49 432 V93 Q49 70 72 70 Z" fill="#7C3AED"/>
  <!-- Dog-ear fold -->
  <path d="M305 70 L305 150 L385 150 Z" fill="#5B21B6"/>
  <path d="M305 70 L305 150 L385 150" fill="none" stroke="#3B0764" stroke-width="18" stroke-linecap="round" stroke-linejoin="round"/>
  <!-- Front document border -->
  <path d="M72 70 H305 L385 150 V432 Q385 455 362 455 H72 Q49 455 49 432 V93 Q49 70 72 70 Z" fill="none" stroke="#3B0764" stroke-width="18" stroke-linejoin="round"/>
  <!-- Short header line -->
  <rect x="95" y="196" width="120" height="24" rx="12" fill="white"/>
  <!-- Content lines -->
  <rect x="95" y="242" width="248" height="20" rx="10" fill="white" opacity="0.85"/>
  <rect x="95" y="279" width="248" height="20" rx="10" fill="white" opacity="0.85"/>
  <rect x="95" y="316" width="248" height="20" rx="10" fill="white" opacity="0.85"/>
  <rect x="95" y="353" width="190" height="20" rx="10" fill="white" opacity="0.85"/>
</svg>
