<svg width="192" height="192" viewBox="0 0 192 192" fill="none" xmlns="http://www.w3.org/2000/svg">
  <!-- App background -->
  <rect width="192" height="192" rx="33" fill="#6D28D9"/>
  <!-- Back document -->
  <rect x="63" y="68" width="82" height="97" rx="8" fill="#3B0764"/>
  <!-- Front document body -->
  <path d="M27 26 H114 L144 56 V162 Q144 170 136 170 H27 Q19 170 19 162 V34 Q19 26 27 26 Z" fill="#7C3AED"/>
  <!-- Dog-ear fold -->
  <path d="M114 26 L114 56 L144 56 Z" fill="#5B21B6"/>
  <path d="M114 26 L114 56 L144 56" fill="none" stroke="#3B0764" stroke-width="7" stroke-linecap="round" stroke-linejoin="round"/>
  <!-- Front document border -->
  <path d="M27 26 H114 L144 56 V162 Q144 170 136 170 H27 Q19 170 19 162 V34 Q19 26 27 26 Z" fill="none" stroke="#3B0764" stroke-width="7" stroke-linejoin="round"/>
  <!-- Short header line -->
  <rect x="35" y="74" width="45" height="9" rx="4.5" fill="white"/>
  <!-- Content lines -->
  <rect x="35" y="91" width="93" height="7.5" rx="3.75" fill="white" opacity="0.85"/>
  <rect x="35" y="105" width="93" height="7.5" rx="3.75" fill="white" opacity="0.85"/>
  <rect x="35" y="119" width="93" height="7.5" rx="3.75" fill="white" opacity="0.85"/>
  <rect x="35" y="133" width="71" height="7.5" rx="3.75" fill="white" opacity="0.85"/>
</svg>
