<svg width="512" height="512" viewBox="0 0 512 512" fill="none" xmlns="http://www.w3.org/2000/svg">
  <!-- Solid background for maskable icon (safe zone: inner 80%) -->
  <rect width="512" height="512" fill="#6D28D9"/>
  <!-- Back document -->
  <rect x="188" y="200" width="200" height="235" rx="20" fill="#3B0764"/>
  <!-- Front document body -->
  <path d="M92 90 H310 L385 165 V420 Q385 440 365 440 H92 Q72 440 72 420 V110 Q72 90 92 90 Z" fill="#7C3AED"/>
  <!-- Dog-ear fold -->
  <path d="M310 90 L310 165 L385 165 Z" fill="#5B21B6"/>
  <path d="M310 90 L310 165 L385 165" fill="none" stroke="#3B0764" stroke-width="17" stroke-linecap="round" stroke-linejoin="round"/>
  <!-- Front document border -->
  <path d="M92 90 H310 L385 165 V420 Q385 440 365 440 H92 Q72 440 72 420 V110 Q72 90 92 90 Z" fill="none" stroke="#3B0764" stroke-width="17" stroke-linejoin="round"/>
  <!-- Short header line -->
  <rect x="114" y="210" width="110" height="22" rx="11" fill="white"/>
  <!-- Content lines -->
  <rect x="114" y="252" width="228" height="18" rx="9" fill="white" opacity="0.85"/>
  <rect x="114" y="287" width="228" height="18" rx="9" fill="white" opacity="0.85"/>
  <rect x="114" y="322" width="228" height="18" rx="9" fill="white" opacity="0.85"/>
  <rect x="114" y="357" width="175" height="18" rx="9" fill="white" opacity="0.85"/>
</svg>
