<svg width="32" height="32" viewBox="0 0 32 32" fill="none" xmlns="http://www.w3.org/2000/svg">
  <!-- Back document -->
  <rect x="11" y="10" width="17" height="19" rx="2.5" fill="#3B0764"/>
  <!-- Front document body -->
  <path d="M3.5 3.5 H18.5 L24.5 9.5 V27 Q24.5 29 22.5 29 H3.5 Q1.5 29 1.5 27 V5.5 Q1.5 3.5 3.5 3.5 Z" fill="#7C3AED"/>
  <!-- Dog-ear fold -->
  <path d="M18.5 3.5 L18.5 9.5 L24.5 9.5 Z" fill="#5B21B6"/>
  <path d="M18.5 3.5 L18.5 9.5 L24.5 9.5" fill="none" stroke="#3B0764" stroke-width="1.5" stroke-linecap="round" stroke-linejoin="round"/>
  <!-- Front document border -->
  <path d="M3.5 3.5 H18.5 L24.5 9.5 V27 Q24.5 29 22.5 29 H3.5 Q1.5 29 1.5 27 V5.5 Q1.5 3.5 3.5 3.5 Z" fill="none" stroke="#3B0764" stroke-width="1.5" stroke-linejoin="round"/>
  <!-- Short header line -->
  <rect x="5" y="13" width="7" height="1.8" rx="0.9" fill="white"/>
  <!-- Content lines -->
  <rect x="5" y="16.2" width="15" height="1.5" rx="0.75" fill="white" opacity="0.8"/>
  <rect x="5" y="19" width="15" height="1.5" rx="0.75" fill="white" opacity="0.8"/>
  <rect x="5" y="21.8" width="15" height="1.5" rx="0.75" fill="white" opacity="0.8"/>
  <rect x="5" y="24.6" width="11" height="1.5" rx="0.75" fill="white" opacity="0.8"/>
</svg>
